<svg viewBox="0 0 24 24" xmlns="http://www.w3.org/2000/svg">
    <path fill="#fff" d="m0 0h24v24h-24z" opacity="0" transform="matrix(-1 0 0 -1 24 24)"/>
    <g fill="#fff">
        <path fill="#fff" d="m12 6a1 1 0 0 0 1-1v-2a1 1 0 0 0 -2 0v2a1 1 0 0 0 1 1z"/>
        <path fill="#fff" d="m21 11h-2a1 1 0 0 0 0 2h2a1 1 0 0 0 0-2z"/>
        <path fill="#fff" d="m6 12a1 1 0 0 0 -1-1h-2a1 1 0 0 0 0 2h2a1 1 0 0 0 1-1z"/>
        <path fill="#fff" d="m6.22 5a1 1 0 0 0 -1.39 1.47l1.44 1.39a1 1 0 0 0 .73.28 1 1 0 0 0 .72-.31 1 1 0 0 0 0-1.41z"/>
        <path fill="#fff" d="m17 8.14a1 1 0 0 0 .69-.28l1.44-1.39a1 1 0 0 0 -1.35-1.47l-1.44 1.42a1 1 0 0 0 0 1.41 1 1 0 0 0 .66.31z"/>
        <path fill="#fff" d="m12 18a1 1 0 0 0 -1 1v2a1 1 0 0 0 2 0v-2a1 1 0 0 0 -1-1z"/>
        <path fill="#fff" d="m17.73 16.14a1 1 0 0 0 -1.39 1.44l1.44 1.42a1 1 0 0 0 .69.28 1 1 0 0 0 .72-.3 1 1 0 0 0 0-1.42z"/>
        <path fill="#fff" d="m6.27 16.14-1.44 1.39a1 1 0 0 0 0 1.42 1 1 0 0 0 .72.3 1 1 0 0 0 .67-.25l1.44-1.39a1 1 0 0 0 -1.39-1.44z"/>
        <path fill="#fff" d="m12 8a4 4 0 1 0 4 4 4 4 0 0 0 -4-4z"/>
    </g>
</svg>