<svg xmlns="http://www.w3.org/2000/svg" enable-background="new 0 0 47.5 47.5" viewBox="0 0 47.5 47.5" width="256" height="256"><defs><clipPath id="a"><path d="M0 38h38V0H0v38Z" fill="#000000" class="color000 svgShape"></path></clipPath></defs><g clip-path="url(#a)" transform="matrix(1.25 0 0 -1.25 0 47.5)" fill="#000000" class="color000 svgShape"><path fill="#ccd6dd" d="M0 0c.089-.816-.83-1.495-2.053-1.515C-3.275-1.535-4.147-.88-4-.051l.356 2c.148.828.939 1.5 1.767 1.5s1.572-.662 1.661-1.478L0 0Z" transform="translate(22.377 20.551)" class="colorccd6dd svgShape"></path><path fill="#ffcc4d" d="M0 0h-.135l-.444 3c-.327 2.209-1.864 4-3.433 4h-12.072c-1.569 0-3.574-1.791-4.478-4l-1.228-3h-3.545c-2.073 0-4.105-1.791-4.539-4l-.587-3c-.002-.008-.001-.015-.002-.021A1.995 1.995 0 0 1-30.246-11h30a4 4 0 0 1 4 4v3c0 2.209-1.681 4-3.754 4" transform="translate(33.246 15)" class="colorffcc4d svgShape"></path><path fill="#292f33" d="M0 0a4 4 0 1 0-8 0 4 4 0 0 0 8 0" transform="translate(15 5)" class="color292f33 svgShape"></path><path fill="#ccd6dd" d="M0 0a2 2 0 1 0-4.001.001A2 2 0 0 0 0 0" transform="translate(13 5)" class="colorccd6dd svgShape"></path><path fill="#292f33" d="M0 0a4 4 0 1 0-8 0 4 4 0 0 0 8 0" transform="translate(32 5)" class="color292f33 svgShape"></path><path fill="#ccd6dd" d="M0 0a2 2 0 1 0-4.001.001A2 2 0 0 0 0 0" transform="translate(30 5)" class="colorccd6dd svgShape"></path><path fill="#f4900c" d="m0 0-.196-1h33.823v1c0 .348-.054.679-.132 1H.329A4.764 4.764 0 0 1 0 0" transform="translate(3.373 11)" class="colorf4900c svgShape"></path><path fill="#55acee" d="M0 0h5.92c-.014.416-.064.908-.156 1.5C5.369 4 5.212 5 2.327 5H0V0Z" transform="translate(25 15)" class="color55acee svgShape"></path><path fill="#55acee" d="M0 0h-5c-1.594 0-3.236-1.567-3.847-3.5A47.154 47.154 0 0 1-9.319-5H0v5Z" transform="translate(23 20)" class="color55acee svgShape"></path></g></svg>