<svg width="155" height="155" viewBox="0 0 155 155" fill="none" xmlns="http://www.w3.org/2000/svg">
<path d="M68.5825 0.210571C70.3423 0.547446 72.1261 0.792083 73.8617 1.23323C82.7327 3.48307 87.5739 9.53078 89.6229 18.1452C91.1978 24.7744 91.1657 31.4998 90.1171 38.1491C89.1488 44.257 87.598 50.2766 86.2963 56.3323C86.2089 56.6083 86.0987 56.8766 85.9668 57.1344C82.5938 55.6753 78.9263 55.0217 75.2558 55.2255C74.8983 55.2455 74.4523 54.66 74.151 54.263C71.8449 51.0145 71.0373 47.1645 69.8401 43.4669C66.3778 32.7713 60.8057 22.8757 53.4521 14.3633C52.3447 13.1413 51.3446 11.8263 50.463 10.4331C48.7635 7.55365 49.3863 4.98698 51.9977 2.88552C54.2396 1.08484 56.9234 0.808123 59.6312 0.511353C60.2178 0.447186 60.7964 0.310832 61.3789 0.210571H68.5825Z" fill="url(#paint0_linear_199_495)"/>
<path d="M154.001 68.7886C153.664 70.5532 153.415 72.3419 152.973 74.0784C150.711 82.9534 144.652 87.802 136.026 89.8273C128.53 91.5838 120.972 91.2269 113.476 89.9837C108.012 89.0773 102.628 87.7459 97.1478 86.5949C97.7223 84.4092 98.313 82.6166 98.6384 80.7758C98.8867 79.245 98.9809 77.6933 98.9196 76.1437C98.8955 75.1853 99.237 74.7722 100.028 74.311C102.852 72.6993 105.867 71.4489 109.004 70.5893C120.619 67.2125 130.936 61.4095 140.076 53.4889C141.294 52.3745 142.621 51.3855 144.038 50.5372C146.705 49.0373 149.136 49.6349 151.141 51.9609C153.146 54.287 153.415 57.0141 153.72 59.8133C153.784 60.4029 153.921 60.9844 154.021 61.5699L154.001 68.7886Z" fill="url(#paint1_linear_199_495)"/>
<path d="M85.4244 154.21C83.6646 153.874 81.8808 153.629 80.1452 153.188C71.1899 150.918 66.3526 144.802 64.4001 136.091C62.7368 128.692 63.0341 121.229 64.2554 113.834C65.1192 108.62 66.5013 103.475 67.6584 98.3052C67.7507 97.9853 67.8607 97.6707 67.9878 97.3628C68.2931 97.455 68.5663 97.5152 68.8235 97.6155C71.6547 98.7982 74.7188 99.3208 77.7828 99.1434C78.9881 99.0472 79.4903 99.5445 80.0608 100.511C81.6061 103.252 82.8019 106.176 83.6204 109.214C86.9412 120.49 92.6429 130.925 100.342 139.817C101.555 141.148 102.648 142.584 103.608 144.108C105.215 146.875 104.597 149.39 102.126 151.435C99.8678 153.308 97.1398 153.613 94.3877 153.91C93.8011 153.974 93.2226 154.106 92.6441 154.21H85.4244Z" fill="url(#paint2_linear_199_495)"/>
<path d="M56.9514 68.183C55.519 71.4666 54.8514 75.0317 54.9988 78.6101C54.9988 79.0753 54.4805 79.6929 54.0386 80.0097C50.3745 82.6245 45.9712 83.3865 41.829 84.8222C31.2441 88.4812 21.4913 94.1994 13.1351 101.646C12.1706 102.518 11.1098 103.279 9.97318 103.912C7.29743 105.36 4.83863 104.794 2.86999 102.456C1.28704 100.571 0.748677 98.3333 0.459408 95.9511C-0.115114 91.1947 -0.267778 86.4584 0.692437 81.7422C2.6209 72.2335 8.67147 66.8194 17.8839 64.6177C24.6617 63.0135 31.5439 63.0897 38.3377 64.1445C43.9624 65.0107 49.4987 66.4264 55.0711 67.6135C55.6457 67.7218 56.2041 67.9464 56.9514 68.183Z" fill="url(#paint3_linear_199_495)"/>
<path d="M97.5617 69.4263C96.2009 65.9921 94.0514 62.9247 91.2862 60.4711C91.1825 60.3205 91.1145 60.1484 91.0873 59.9678C91.0602 59.7871 91.0746 59.6026 91.1295 59.4284C91.9812 56.6211 92.7044 53.8138 94.203 51.1789C100.756 39.7212 104.155 27.3169 104.918 14.1628C104.953 13.5131 105.036 12.867 105.167 12.2297C106.151 7.61376 109.084 5.92537 113.604 7.37714C114.281 7.55983 114.928 7.83945 115.525 8.2073C121.113 12.0573 126.071 16.5369 129.261 22.6448C132.567 28.9853 132.282 35.3578 129.112 41.6742C126.276 47.3289 122.053 51.8567 117.349 55.9714C111.334 61.2491 104.689 65.6004 97.5617 69.4263Z" fill="url(#paint4_linear_199_495)" fill-opacity="0.9"/>
<path d="M56.4453 85.0669C57.7808 88.4075 59.869 91.3963 62.5481 93.8016C62.691 93.977 62.7918 94.1828 62.8426 94.4032C62.8935 94.6236 62.893 94.8527 62.8414 95.0729C61.9976 97.9403 61.158 100.768 59.6272 103.435C53.1588 114.808 49.8041 127.132 49.0649 140.174C49.0424 140.724 48.9834 141.272 48.8881 141.814C47.8998 146.908 44.5049 148.853 39.7399 146.759C37.7673 145.893 36.0196 144.433 34.3121 143.07C31.07 140.526 28.265 137.471 26.0077 134.026C21.5856 127.168 21.1932 120.083 24.8305 112.771C27.5143 107.389 31.4998 103.058 35.9031 99.0552C41.2707 94.2026 50.8608 87.6376 56.4453 85.0669Z" fill="url(#paint5_linear_199_495)"/>
<path d="M84.7977 97.78C88.1698 96.4295 91.1857 94.3232 93.6124 91.624C93.7919 91.4873 94.0001 91.3928 94.2213 91.3477C94.4426 91.3025 94.6712 91.3079 94.89 91.3633C97.7024 92.2095 100.515 93.0036 103.118 94.4955C114.488 100.956 126.79 104.353 139.831 105.143C140.581 105.185 141.326 105.281 142.061 105.432C146.368 106.33 148.059 108.969 146.983 113.22C146.755 114.244 146.347 115.218 145.777 116.1C142.334 121.024 138.349 125.432 133.166 128.596C125.709 133.148 118.253 132.739 110.852 128.432C104.548 124.762 99.667 119.549 95.2114 113.89C91.2703 108.837 87.7855 103.446 84.7977 97.78V97.78Z" fill="url(#paint6_linear_199_495)"/>
<path d="M69.1248 56.6772C65.7361 58.0211 62.7092 60.1375 60.286 62.8573C60.1185 62.9759 59.9264 63.0552 59.724 63.0892C59.5215 63.1232 59.314 63.1111 59.1169 63.0538C56.1518 62.1916 53.2431 61.2812 50.491 59.7292C39.1894 53.3486 26.9637 50.032 14.0269 49.27C13.3272 49.2302 12.6315 49.1377 11.9458 48.9933C7.47012 48.0589 5.81487 45.3839 7.02418 40.9725C7.20178 40.19 7.50718 39.4421 7.92815 38.7587C12.0502 32.7431 16.9035 27.4373 23.6933 24.3533C29.6515 21.6462 35.5735 22.1516 41.3709 25.031C46.9394 27.8022 51.3909 31.953 55.4889 36.5369C60.1815 41.7745 66.441 50.9824 69.1248 56.6772Z" fill="url(#paint7_linear_199_495)"/>
<defs>
<linearGradient id="paint0_linear_199_495" x1="55.2894" y1="0.629484" x2="84.8529" y2="49.594" gradientUnits="userSpaceOnUse">
<stop stop-color="white"/>
<stop offset="1" stop-color="white" stop-opacity="0.2"/>
</linearGradient>
<linearGradient id="paint1_linear_199_495" x1="147.675" y1="63.4518" x2="102.406" y2="77.3097" gradientUnits="userSpaceOnUse">
<stop stop-color="white"/>
<stop offset="1" stop-color="white" stop-opacity="0.2"/>
</linearGradient>
<linearGradient id="paint2_linear_199_495" x1="77.462" y1="103.178" x2="98.7107" y2="153.99" gradientUnits="userSpaceOnUse">
<stop stop-color="white" stop-opacity="0.2"/>
<stop offset="1" stop-color="white"/>
</linearGradient>
<linearGradient id="paint3_linear_199_495" x1="57.1371" y1="74.538" x2="-0.142098" y2="93.0151" gradientUnits="userSpaceOnUse">
<stop stop-color="white" stop-opacity="0.2"/>
<stop offset="1" stop-color="white"/>
</linearGradient>
<linearGradient id="paint4_linear_199_495" x1="124.579" y1="7.09645" x2="95.9391" y2="61.6041" gradientUnits="userSpaceOnUse">
<stop offset="0.0104167" stop-color="white"/>
<stop offset="1" stop-color="white" stop-opacity="0.2"/>
</linearGradient>
<linearGradient id="paint5_linear_199_495" x1="62.6803" y1="84.7005" x2="22.0305" y2="137.36" gradientUnits="userSpaceOnUse">
<stop stop-color="white" stop-opacity="0.2"/>
<stop offset="1" stop-color="white"/>
</linearGradient>
<linearGradient id="paint6_linear_199_495" x1="133.817" y1="123.503" x2="92.2437" y2="96.7107" gradientUnits="userSpaceOnUse">
<stop stop-color="white"/>
<stop offset="1" stop-color="white" stop-opacity="0.2"/>
</linearGradient>
<linearGradient id="paint7_linear_199_495" x1="16.4872" y1="33.8884" x2="61.7562" y2="53.2894" gradientUnits="userSpaceOnUse">
<stop stop-color="white"/>
<stop offset="1" stop-color="white" stop-opacity="0.2"/>
</linearGradient>
</defs>
</svg>
